<?xml version="1.0" standalone="no"?>
<!DOCTYPE svg PUBLIC "-//W3C//DTD SVG 20010904//EN"
 "http://www.w3.org/TR/2001/REC-SVG-20010904/DTD/svg10.dtd">
<svg version="1.0" xmlns="http://www.w3.org/2000/svg"
 width="512.000000pt" height="512.000000pt" viewBox="0 0 512.000000 512.000000"
 preserveAspectRatio="xMidYMid meet">
<metadata>
Created by potrace 1.14, written by Peter Selinger 2001-2017
</metadata>
<g transform="translate(0.000000,512.000000) scale(0.100000,-0.100000)"
fill="#000000" stroke="none">
<path d="M1336 4778 c3 -4 -2 -8 -10 -8 -8 0 -20 -9 -26 -20 -6 -11 -8 -20 -4
-20 3 0 1 -7 -7 -16 -7 -9 -9 -18 -3 -22 15 -12 38 -55 23 -47 -8 5 -10 4 -5
-3 4 -7 15 -12 24 -12 15 0 15 -2 2 -10 -13 -8 -12 -10 3 -10 9 0 18 -4 18
-10 1 -5 2 -14 3 -19 0 -5 5 -13 10 -18 6 -5 6 -2 1 7 -8 13 -6 13 7 2 9 -8
14 -20 11 -28 -3 -9 1 -14 12 -14 9 0 14 -4 10 -9 -3 -6 1 -13 9 -18 14 -8 16
-12 16 -34 0 -6 7 -9 14 -6 10 4 13 1 10 -7 -3 -8 3 -20 13 -27 10 -8 19 -21
21 -29 2 -8 8 -16 13 -18 5 -2 9 -10 9 -18 0 -9 5 -12 10 -9 9 5 12 -1 9 -21
0 -3 9 -14 20 -23 12 -10 21 -23 21 -30 0 -6 5 -11 10 -11 6 0 10 -7 10 -15 0
-8 5 -15 10 -15 6 0 10 -7 10 -16 0 -9 5 -12 12 -8 8 5 9 2 5 -10 -4 -9 -3
-14 2 -11 5 3 12 -4 16 -15 4 -11 10 -18 15 -15 5 3 7 -4 5 -15 -2 -12 0 -18
6 -14 6 3 13 -3 16 -15 3 -11 9 -18 14 -15 5 3 9 -4 9 -15 0 -13 7 -21 18 -21
14 0 15 -2 2 -10 -13 -8 -12 -10 3 -10 9 0 17 -7 17 -15 0 -8 5 -15 10 -15 6
0 10 -10 10 -22 0 -12 3 -18 6 -15 9 9 45 -33 38 -44 -3 -5 -1 -9 4 -9 5 0 12
-9 15 -20 3 -11 13 -20 22 -20 9 0 13 -4 10 -10 -4 -6 1 -7 11 -3 12 4 15 3
10 -5 -5 -9 -1 -9 18 -3 19 8 26 6 30 -5 4 -11 10 -13 23 -5 11 6 24 6 35 0
10 -5 18 -7 18 -4 0 3 10 1 21 -6 15 -7 19 -8 15 0 -5 7 -1 9 8 5 9 -3 16 -11
16 -18 0 -7 3 -7 8 -1 9 13 32 17 32 6 0 -10 19 -9 37 2 6 4 15 2 19 -4 5 -8
3 -9 -6 -4 -8 5 -11 4 -6 -3 4 -6 13 -9 20 -6 7 3 16 -3 20 -13 4 -9 4 -14 0
-10 -4 4 -14 1 -22 -6 -13 -10 -15 -9 -8 3 6 13 6 13 -6 0 -7 -9 -23 -15 -36
-14 -12 1 -25 -3 -29 -9 -4 -6 -1 -7 7 -2 8 5 11 4 7 -2 -4 -6 -18 -9 -33 -7
-18 2 -24 -1 -20 -11 3 -9 0 -12 -10 -8 -7 3 -14 1 -14 -5 0 -5 -6 -10 -12 -9
-33 1 -49 -4 -43 -13 3 -5 0 -10 -8 -10 -7 0 -19 -12 -25 -26 -7 -14 -8 -23
-4 -20 5 3 9 -1 9 -9 0 -8 -4 -12 -9 -9 -4 3 -8 -4 -8 -15 0 -12 -5 -21 -11
-21 -8 0 -8 -5 1 -15 11 -13 8 -19 -10 -17 -3 0 -7 -8 -7 -19 -1 -11 3 -17 9
-13 5 4 2 -5 -7 -19 -9 -15 -14 -31 -10 -37 4 -6 -1 -18 -11 -26 -11 -9 -12
-12 -4 -8 12 7 13 5 3 -8 -7 -8 -10 -18 -6 -21 3 -4 1 -7 -6 -7 -7 0 -9 -5 -6
-10 4 -6 1 -18 -7 -27 -11 -14 -11 -16 2 -8 13 8 13 6 2 -8 -8 -9 -10 -22 -6
-28 5 -9 2 -10 -10 -6 -12 5 -15 3 -9 -5 12 -21 11 -50 -4 -55 -11 -4 -11 -8
-2 -20 10 -11 9 -13 -2 -11 -10 2 -13 -5 -12 -24 2 -20 -3 -28 -15 -28 -14 0
-15 -2 -3 -9 12 -8 12 -12 2 -25 -7 -8 -10 -20 -6 -26 3 -5 1 -10 -5 -10 -6 0
-8 -5 -5 -10 4 -6 1 -17 -5 -25 -6 -8 -9 -19 -5 -25 3 -5 1 -10 -6 -10 -7 0
-9 -3 -6 -7 4 -3 1 -13 -6 -21 -6 -9 -7 -13 -2 -10 6 4 11 -2 11 -13 0 -10 -6
-19 -12 -19 -8 0 -11 -9 -8 -24 2 -14 0 -28 -6 -31 -6 -4 -8 -11 -5 -16 4 -5
-2 -9 -12 -10 -11 0 -13 -3 -5 -6 6 -2 9 -10 5 -16 -14 -22 -14 -49 -1 -42 7
4 2 -3 -12 -15 -14 -12 -19 -19 -12 -15 6 3 12 1 12 -4 0 -6 -5 -11 -11 -11
-5 0 -7 -4 -4 -10 3 -5 2 -10 -3 -10 -5 0 -8 -13 -6 -30 2 -20 -2 -32 -14 -39
-14 -8 -14 -11 -2 -11 12 0 10 -4 -4 -15 -11 -8 -15 -15 -9 -15 6 0 9 -9 6
-20 -3 -11 -9 -17 -14 -14 -5 3 -6 -3 -2 -12 4 -12 3 -15 -5 -10 -9 5 -9 0 -2
-19 7 -18 7 -24 0 -20 -7 4 -9 -3 -6 -20 4 -20 2 -24 -7 -16 -9 7 -13 5 -13
-9 0 -10 4 -16 8 -14 14 9 9 -4 -8 -20 -11 -11 -12 -16 -3 -16 7 0 5 -7 -7
-16 -10 -8 -13 -13 -6 -9 16 8 15 -5 -3 -29 -8 -10 -12 -23 -9 -28 3 -5 0 -16
-8 -25 -9 -12 -9 -15 -1 -9 9 5 11 2 7 -8 -3 -9 -10 -16 -14 -16 -4 0 -6 -14
-5 -31 2 -22 -1 -29 -11 -25 -8 3 -11 0 -7 -10 3 -8 -1 -22 -8 -31 -12 -14
-12 -16 1 -8 12 6 12 5 3 -5 -6 -7 -9 -19 -6 -28 4 -9 2 -13 -4 -9 -7 5 -9 0
-6 -13 3 -12 0 -20 -6 -20 -7 0 -11 -6 -10 -13 5 -38 -2 -68 -13 -61 -8 5 -7
0 2 -11 9 -11 10 -16 3 -11 -14 8 -14 7 -17 -39 -1 -34 -16 -56 -31 -47 -5 3
-4 -2 4 -11 11 -14 11 -17 0 -17 -12 0 -12 -2 0 -9 10 -6 10 -10 1 -16 -6 -4
-9 -13 -6 -21 3 -8 -1 -17 -10 -21 -13 -5 -13 -7 -2 -14 11 -7 11 -9 -1 -9 -7
0 -11 -6 -7 -15 3 -8 0 -15 -7 -15 -8 0 -6 -4 3 -10 11 -7 11 -10 2 -10 -7 0
-10 -5 -7 -10 3 -5 1 -10 -5 -10 -6 0 -8 -5 -5 -10 3 -5 1 -10 -4 -10 -6 0
-11 -5 -11 -11 0 -5 5 -7 10 -4 6 3 10 1 10 -4 0 -6 -5 -11 -11 -11 -5 0 -7
-5 -4 -10 3 -5 1 -10 -6 -10 -9 0 -9 -3 0 -14 9 -11 9 -16 0 -22 -8 -5 -9 -3
-4 6 5 8 4 11 -3 6 -6 -3 -11 -14 -10 -24 0 -9 -4 -30 -8 -47 -4 -16 -7 -38
-8 -47 0 -9 -5 -14 -10 -11 -5 4 -7 -3 -4 -15 4 -12 2 -22 -2 -22 -5 0 -7 -9
-5 -20 2 -11 0 -18 -4 -15 -5 3 -11 -2 -15 -10 -3 -8 -1 -17 5 -21 6 -3 3 -12
-8 -21 -10 -8 -12 -12 -5 -8 17 8 15 -3 -3 -21 -8 -9 -20 -12 -26 -8 -7 4 -9
3 -6 -3 4 -6 0 -13 -8 -17 -8 -3 -17 0 -21 6 -5 7 -2 8 6 3 9 -5 11 -4 6 3 -5
9 -15 7 -34 -6 -20 -13 -24 -14 -17 -2 8 13 6 13 -8 2 -9 -8 -22 -12 -29 -10
-7 3 -19 -2 -26 -11 -8 -9 -11 -10 -7 -3 7 13 -7 17 -19 5 -11 -11 -46 -10
-46 1 0 6 -4 5 -9 -3 -5 -7 -14 -10 -20 -6 -7 4 -18 1 -26 -5 -8 -7 -15 -9
-16 -4 0 5 -4 0 -9 -11 -7 -16 -9 -17 -9 -3 -1 12 -7 15 -23 12 -13 -3 -28 -6
-35 -8 -7 -1 -16 -6 -20 -11 -4 -4 -2 -5 6 0 10 6 12 4 7 -4 -6 -9 -11 -9 -21
-1 -10 8 -14 7 -17 -2 -4 -10 -9 -10 -23 2 -10 8 -16 10 -12 4 8 -14 -9 -21
-45 -19 -19 1 -25 -2 -19 -9 6 -7 1 -11 -16 -13 -19 -1 -22 1 -12 8 9 6 10 9
2 9 -6 0 -15 -5 -18 -11 -4 -6 -14 -8 -22 -5 -8 3 -12 2 -8 -3 8 -14 -17 -20
-38 -9 -12 6 -17 5 -15 -4 2 -8 -8 -13 -29 -12 -18 0 -30 -3 -28 -7 6 -9 -24
-22 -52 -22 -13 0 -23 -4 -23 -9 0 -5 -5 -6 -10 -3 -5 3 -10 1 -10 -6 0 -7 -3
-9 -7 -6 -3 4 -13 1 -21 -6 -13 -10 -15 -9 -8 3 4 8 0 6 -8 -4 -9 -11 -16 -16
-16 -12 0 5 -6 3 -13 -3 -8 -6 -17 -8 -20 -4 -4 3 -7 1 -7 -6 0 -7 -4 -9 -10
-6 -5 3 -10 1 -10 -4 0 -6 -9 -11 -21 -11 -13 0 -18 -4 -13 -12 5 -8 2 -9 -9
-5 -10 3 -17 2 -17 -3 0 -6 -7 -10 -16 -10 -8 0 -13 -4 -10 -9 7 -11 -22 -23
-36 -14 -6 3 -8 2 -5 -4 4 -5 -5 -16 -18 -23 -14 -7 -25 -19 -25 -26 0 -6 -7
-14 -15 -18 -8 -3 -14 -11 -13 -18 2 -7 -2 -12 -9 -13 -6 0 -15 -4 -20 -9 -5
-5 -3 -6 5 -2 6 4 12 3 12 -2 0 -6 -8 -13 -17 -16 -15 -6 -15 -8 -3 -16 10 -7
11 -10 3 -10 -9 0 -13 -16 -13 -44 0 -44 13 -68 24 -44 3 7 3 3 0 -9 -3 -13
-1 -23 5 -23 6 0 8 -8 4 -17 -3 -10 -2 -15 2 -11 5 5 15 -1 22 -12 8 -11 19
-18 24 -14 5 3 9 2 8 -3 -3 -19 2 -34 10 -29 5 3 17 -2 28 -12 10 -9 12 -13 3
-7 -12 7 -13 7 -3 -5 7 -7 23 -15 35 -17 12 -2 27 -11 31 -19 8 -14 11 -14 18
-3 7 11 9 9 9 -6 0 -17 2 -17 10 -5 8 13 10 12 10 -4 0 -11 3 -16 7 -13 3 4
15 -1 26 -10 11 -10 17 -12 13 -6 -5 9 -2 11 8 7 9 -3 16 -10 16 -16 0 -5 4
-7 9 -4 15 9 42 -5 34 -18 -4 -6 0 -6 9 2 13 10 18 10 24 1 5 -8 3 -9 -6 -4
-8 5 -11 4 -6 -3 3 -6 15 -9 26 -7 11 2 20 0 20 -6 0 -5 5 -9 11 -9 5 0 7 6 3
13 -6 8 -3 8 9 -1 9 -8 22 -10 28 -6 7 4 9 3 5 -4 -3 -6 3 -16 15 -22 13 -7
19 -8 15 -2 -3 6 -2 13 4 17 5 3 10 -1 10 -11 0 -11 6 -15 20 -11 11 3 20 1
20 -4 0 -5 3 -8 7 -8 26 4 63 -2 59 -10 -3 -5 8 -8 24 -7 17 1 30 -3 30 -8 0
-6 5 -4 10 4 8 13 10 12 10 -2 0 -10 5 -18 11 -18 5 0 8 4 5 8 -8 13 31 7 48
-7 13 -11 16 -11 16 -1 0 9 7 7 20 -5 11 -10 20 -14 20 -8 0 5 7 10 15 10 8 0
12 -4 9 -9 -3 -4 1 -8 10 -8 8 0 17 6 19 13 4 7 6 6 6 -4 1 -20 32 -30 55 -17
10 5 16 5 16 0 0 -5 13 -8 30 -6 16 2 32 -2 36 -8 5 -7 3 -8 -6 -3 -9 6 -11 4
-5 -4 5 -9 10 -10 18 -2 13 13 31 15 23 3 -3 -5 1 -9 9 -9 8 0 11 5 8 11 -4 6
1 5 10 -3 14 -11 17 -11 17 0 0 11 2 11 8 1 5 -8 16 -10 27 -6 12 5 16 4 12
-3 -5 -8 4 -8 28 -3 19 4 33 4 30 0 -3 -5 -1 -11 5 -15 5 -3 10 0 10 7 0 10 3
9 9 -1 8 -13 12 -13 27 0 14 11 16 11 10 0 -7 -10 -3 -12 13 -6 13 4 28 1 36
-5 10 -9 15 -9 15 -1 0 7 8 8 24 1 13 -5 27 -6 30 -3 3 3 13 0 23 -8 11 -9 14
-10 9 -1 -4 6 -3 12 2 12 6 0 13 -8 16 -17 5 -12 10 -13 18 -5 6 6 17 8 24 5
8 -3 14 1 14 8 0 9 5 7 11 -5 9 -15 13 -16 20 -5 6 10 9 11 9 2 0 -7 5 -13 11
-13 5 0 8 4 5 8 -2 4 4 8 14 8 10 0 16 -4 14 -8 -3 -4 2 -8 11 -8 10 0 13 5 9
13 -6 9 -5 9 8 0 8 -7 18 -10 21 -6 4 3 7 1 7 -7 0 -10 3 -10 15 0 12 10 15
10 15 0 0 -9 4 -9 17 1 20 18 17 18 42 -11 18 -20 20 -21 12 -4 -8 16 -7 21 4
21 8 0 12 -4 9 -9 -6 -10 25 -6 46 6 8 5 12 6 8 1 -4 -4 -1 -14 7 -21 17 -18
26 -18 19 -1 -3 9 5 13 24 12 16 0 28 -5 26 -10 -3 -6 7 -12 20 -13 16 -1 26
4 29 16 4 14 5 15 6 1 1 -13 13 -17 58 -18 36 -1 60 4 65 12 6 9 8 9 8 0 0
-10 81 -13 372 -12 337 0 373 2 385 17 11 15 12 15 7 1 -4 -13 1 -17 23 -17
15 0 31 5 35 12 6 8 8 7 8 -1 0 -7 7 -13 16 -13 14 0 14 3 4 15 -11 13 -10 14
4 9 9 -3 16 -10 16 -15 0 -5 5 -9 11 -9 6 0 9 6 6 13 -7 19 82 15 94 -4 6 -10
9 -7 9 11 0 19 2 22 9 10 6 -8 7 -18 4 -24 -3 -5 -1 -6 6 -2 6 4 9 11 6 16 -3
4 2 10 9 13 17 7 39 -16 28 -28 -4 -5 -1 -5 6 -1 7 4 10 11 7 16 -3 4 2 10 10
14 8 3 15 0 15 -6 0 -7 4 -7 13 -1 6 6 38 10 70 9 44 -1 57 2 57 13 0 11 4 9
15 -5 8 -11 15 -14 15 -6 0 6 5 12 11 12 5 0 7 -4 4 -10 -10 -17 7 -11 22 8
14 16 14 16 9 -3 l-6 -20 15 20 c18 22 24 23 36 3 5 -7 9 -8 9 -2 0 10 22 13
115 15 22 1 46 6 53 12 10 8 16 7 23 -4 8 -12 10 -12 19 1 11 18 32 20 42 5 5
-6 8 -6 8 2 0 7 7 10 17 6 12 -5 14 -3 8 8 -7 11 -6 12 6 3 21 -15 62 -10 110
16 9 4 22 4 29 0 8 -5 21 -5 29 -1 9 5 28 7 44 5 19 -2 25 1 20 9 -4 7 2 5 12
-3 10 -8 16 -10 12 -3 -4 6 -3 14 2 17 5 4 12 2 16 -4 4 -7 13 -7 26 1 11 6
27 8 35 5 8 -3 14 -1 14 5 0 6 4 8 9 4 5 -3 12 3 14 12 4 17 5 17 6 1 1 -21
17 -24 24 -4 3 9 15 12 31 9 15 -3 26 -1 26 6 0 6 5 11 11 11 5 0 8 -4 5 -8
-3 -5 1 -9 9 -9 8 0 11 5 8 10 -4 6 3 8 15 5 12 -4 20 -3 17 2 -3 4 2 11 11
14 23 9 26 8 18 -7 -5 -8 -2 -7 9 2 10 8 20 11 24 8 3 -4 12 1 20 11 8 9 11
11 7 3 -5 -10 -3 -12 7 -5 8 5 19 9 24 10 6 0 15 2 22 2 7 1 11 8 9 15 -1 6
-1 9 1 5 3 -5 11 -8 19 -8 9 0 12 4 9 10 -4 6 1 7 10 3 10 -3 20 -1 24 6 4 7
21 13 37 15 16 1 28 7 27 14 -2 7 4 9 14 5 11 -5 14 -3 8 6 -6 10 -3 11 14 2
19 -11 25 -8 22 12 -1 4 12 10 29 13 16 4 30 11 30 16 0 5 5 6 10 3 6 -3 10
-1 10 5 0 7 7 10 14 7 10 -4 13 -1 10 8 -4 10 0 13 16 10 16 -3 20 0 16 10 -3
10 0 12 11 8 12 -5 15 -2 10 10 -3 9 -3 16 1 14 12 -3 62 54 62 70 0 8 4 12 9
9 4 -3 8 5 7 17 -1 12 5 28 14 35 13 12 13 13 -2 8 -10 -3 -18 -3 -18 1 0 3 8
12 18 20 11 8 12 12 3 11 -12 -3 -20 15 -23 50 -1 6 -7 12 -15 12 -7 0 -13 9
-13 21 0 11 -4 18 -9 14 -6 -3 -15 4 -21 15 -6 12 -18 19 -25 16 -9 -3 -12 2
-10 15 4 18 2 19 -12 7 -9 -7 -14 -8 -10 -2 4 7 -1 18 -10 25 -14 12 -16 12
-8 -1 8 -13 7 -13 -11 0 -10 8 -25 21 -32 28 -8 7 -18 10 -23 7 -5 -4 -9 -1
-9 5 0 6 -4 8 -10 5 -5 -3 -10 2 -10 12 0 14 -2 15 -9 5 -6 -11 -11 -10 -24 3
-9 9 -21 14 -26 10 -6 -3 -14 3 -20 12 -8 13 -10 14 -11 4 0 -11 -4 -10 -16 5
-8 10 -12 12 -8 4 7 -13 5 -13 -9 -2 -9 8 -21 11 -27 7 -5 -3 -10 -2 -10 4 0
5 6 12 13 15 6 3 -2 3 -19 1 -20 -3 -36 0 -44 10 -15 18 -37 19 -43 3 -3 -8
-6 -5 -6 5 -1 10 -6 15 -11 12 -6 -3 -10 -1 -10 6 0 8 -4 8 -15 -1 -14 -11
-19 -7 -16 12 0 4 -6 5 -15 1 -9 -3 -20 0 -25 8 -5 8 -9 9 -9 3 0 -6 -7 -11
-15 -11 -8 0 -11 5 -8 10 4 6 -5 8 -20 5 -15 -3 -24 -2 -22 2 2 4 -8 12 -23
19 -25 11 -26 10 -8 -4 11 -8 15 -15 9 -15 -7 0 -18 7 -26 15 -12 11 -17 12
-20 2 -4 -9 -6 -9 -6 0 -1 7 -8 10 -18 6 -10 -4 -14 -2 -10 4 5 7 -4 10 -23 9
-17 -1 -30 1 -30 5 0 3 -13 5 -30 4 -17 -1 -30 2 -30 9 0 6 -5 4 -10 -4 -8
-12 -10 -12 -10 5 0 17 -2 17 -10 5 -6 -10 -10 -11 -10 -2 0 6 -5 12 -11 12
-5 0 -7 -6 -3 -12 6 -10 5 -10 -8 -1 -8 7 -18 10 -22 6 -4 -4 -11 -1 -17 7 -7
13 -10 13 -18 1 -7 -11 -9 -11 -13 0 -4 12 -8 11 -23 -1 -17 -14 -18 -13 -12
2 4 13 2 15 -10 11 -10 -4 -14 -2 -10 4 7 11 -46 8 -65 -3 -7 -5 -8 -2 -3 6 6
10 0 12 -23 8 -22 -3 -29 -1 -25 9 3 7 0 13 -6 13 -6 0 -10 3 -9 8 5 17 -27
100 -36 94 -6 -3 -4 3 4 13 9 11 10 16 3 11 -13 -7 -18 10 -14 43 2 7 -2 10
-8 6 -10 -6 -16 21 -12 54 2 7 -2 10 -8 6 -7 -3 -11 3 -11 15 0 12 -7 28 -15
36 -8 9 -15 21 -15 27 0 7 4 6 10 -3 5 -8 10 -10 10 -4 0 6 -6 17 -14 23 -8 7
-13 21 -11 31 3 14 -1 17 -13 13 -15 -6 -15 -5 -3 10 9 11 10 17 2 17 -6 0
-11 9 -11 19 0 11 -6 22 -12 24 -10 4 -10 6 1 6 8 1 5 9 -10 22 -13 11 -18 17
-10 13 11 -5 13 -3 8 10 -4 10 -7 22 -7 27 0 6 -5 7 -11 3 -8 -4 -9 0 -4 15 4
13 2 21 -5 21 -7 0 -10 7 -7 15 4 8 1 17 -5 21 -7 5 -8 2 -3 -6 5 -8 4 -11 -2
-7 -6 4 -9 18 -8 31 2 14 -5 32 -14 40 -9 8 -17 28 -16 43 0 15 -6 34 -15 41
-13 12 -13 12 0 6 12 -7 13 -5 3 8 -7 8 -10 18 -6 21 3 4 1 7 -6 7 -8 0 -11 7
-7 15 3 9 -1 18 -8 21 -8 3 -13 14 -11 25 2 10 0 19 -5 19 -4 0 -11 7 -14 16
-6 15 -4 15 11 3 17 -13 17 -13 1 7 -10 11 -18 28 -18 38 0 10 -5 14 -11 10
-8 -5 -10 3 -7 24 2 17 1 29 -3 26 -4 -2 -10 0 -14 6 -3 5 -1 10 6 10 7 0 5 6
-6 13 -10 8 -15 19 -11 25 3 6 -2 15 -11 21 -10 6 -13 11 -7 11 6 0 11 6 11
14 0 8 -5 12 -12 10 -6 -3 -12 3 -13 13 -4 40 -10 58 -19 56 -5 -1 -8 10 -7
25 0 15 -7 33 -16 42 -9 8 -9 11 -1 5 12 -9 12 -7 2 13 -6 12 -8 22 -4 22 4 0
2 4 -6 9 -8 5 -15 17 -16 28 -1 10 -6 28 -13 39 -6 12 -8 24 -5 28 3 3 1 6 -6
6 -7 0 -9 5 -6 10 3 6 1 10 -5 10 -6 0 -8 5 -4 11 3 6 1 15 -6 19 -8 5 -13 22
-13 39 0 16 -3 28 -6 26 -4 -2 -11 8 -18 21 -6 13 -7 21 -1 18 5 -3 0 13 -12
36 -12 23 -19 48 -17 54 3 7 -4 21 -15 30 -15 13 -17 21 -9 29 8 8 5 18 -12
36 -12 13 -16 21 -10 17 9 -5 11 -2 7 8 -3 9 -11 16 -16 16 -6 0 -8 9 -5 20 3
13 0 20 -9 20 -8 0 -14 9 -14 21 0 13 4 18 13 14 6 -4 3 2 -8 12 -20 19 -27
35 -28 63 0 8 -9 30 -19 48 -11 21 -14 31 -6 27 7 -4 6 -1 -2 7 -9 7 -14 21
-12 31 2 9 -1 17 -7 17 -6 0 -11 9 -11 21 0 13 -4 18 -12 13 -9 -5 -9 -2 1 9
11 13 11 17 1 17 -8 0 -10 3 -7 7 4 3 -1 12 -11 20 -9 8 -11 12 -4 8 18 -9 15
6 -5 22 -10 8 -12 12 -5 8 6 -3 12 -1 12 4 0 6 -4 11 -10 11 -5 0 -6 7 -3 17
4 11 3 14 -5 9 -8 -5 -12 3 -12 23 0 17 -5 31 -11 31 -8 0 -8 4 1 15 10 12 8
13 -10 10 -18 -3 -20 -2 -10 10 7 8 8 15 3 15 -5 0 -9 10 -10 22 -1 11 -6 24
-11 27 -5 3 -10 14 -10 24 -4 40 -6 46 -13 41 -4 -2 -10 0 -14 6 -3 5 -1 10 6
10 9 0 9 4 -1 15 -6 8 -8 20 -4 26 4 8 3 9 -4 5 -8 -4 -12 0 -12 11 0 11 -6
25 -12 32 -8 9 -9 12 -1 7 8 -4 8 0 0 19 -7 14 -15 25 -19 25 -3 0 -5 13 -4
29 1 16 -3 29 -8 28 -6 -1 -13 12 -14 28 -2 17 -10 37 -17 45 -8 8 -14 20 -15
25 -4 34 -14 54 -24 48 -8 -4 -7 -2 1 7 9 10 9 17 0 33 -23 40 -42 57 -63 57
-14 0 -24 8 -27 22 -5 18 -8 19 -21 8 -11 -8 -16 -9 -16 -1 0 6 -12 11 -26 11
-14 0 -23 4 -20 8 4 7 -10 11 -51 14 -7 1 -13 5 -13 10 0 4 -7 8 -16 8 -9 0
-12 5 -8 13 5 9 4 9 -6 0 -9 -8 -19 -9 -36 -1 -13 6 -24 14 -24 17 0 4 -12 8
-27 9 -16 1 -29 7 -31 12 -2 6 -15 10 -28 10 -14 0 -22 4 -19 10 3 6 1 10 -4
10 -6 0 -11 -6 -11 -12 0 -9 -3 -9 -8 -2 -4 5 -22 16 -39 23 -18 8 -33 19 -33
25 0 6 -4 5 -9 -3 -6 -9 -11 -10 -15 -2 -4 6 -16 11 -27 11 -11 0 -17 5 -14
10 9 14 -8 12 -24 -2 -10 -9 -12 -10 -7 -1 4 8 -7 16 -34 24 -22 7 -40 16 -40
20 0 5 -7 6 -15 3 -10 -4 -15 0 -15 12 0 16 -2 17 -11 4 -8 -11 -12 -12 -16
-2 -2 6 -13 12 -24 12 -10 0 -19 5 -19 10 0 7 -7 7 -21 -1 -12 -6 -19 -7 -16
-2 3 5 2 15 -4 23 -7 13 -9 13 -9 0 0 -13 -1 -13 -10 0 -9 13 -10 13 -10 0 -1
-12 -3 -11 -11 3 -6 9 -15 14 -21 11 -6 -4 -17 1 -25 11 -9 13 -13 14 -13 5 0
-9 -5 -8 -16 6 -8 10 -12 13 -9 6 6 -11 3 -11 -16 0 -13 7 -27 18 -31 23 -5 6
-11 5 -17 -4 -7 -10 -12 -8 -24 9 -11 15 -16 18 -20 8 -4 -10 -6 -10 -6 0 -1
6 -10 12 -21 12 -11 0 -20 4 -20 10 0 5 -7 7 -15 4 -8 -4 -15 -1 -15 5 0 6 -7
8 -15 5 -8 -4 -17 1 -21 10 -3 9 -10 16 -16 16 -5 0 -6 -4 -3 -10 3 -6 -1 -7
-9 -4 -9 3 -13 10 -10 15 3 5 -2 6 -10 3 -9 -3 -16 -1 -16 5 0 6 -5 11 -11 11
-5 0 -7 -6 -4 -12 4 -7 0 -5 -8 4 -8 10 -17 14 -21 10 -4 -4 -12 1 -17 11 -8
14 -21 17 -54 16 -24 -2 -42 -6 -39 -11z m81 -4 c-3 -3 -12 -4 -19 -1 -8 3 -5
6 6 6 11 1 17 -2 13 -5z m657 -430 c12 -5 13 -10 5 -25 -7 -15 -6 -21 5 -25 8
-3 13 -14 11 -25 -2 -11 0 -17 5 -14 5 3 11 1 15 -5 4 -6 11 -8 16 -5 5 4 9 1
9 -4 0 -6 3 -10 8 -10 27 5 43 -3 40 -18 -2 -10 -6 -16 -10 -13 -4 3 -14 -4
-23 -15 -9 -11 -14 -13 -10 -5 4 8 -2 4 -13 -9 -14 -17 -21 -20 -24 -10 -3 9
-7 5 -10 -9 -4 -14 -2 -20 5 -15 6 4 8 0 4 -9 -3 -9 0 -21 6 -28 9 -9 9 -11 1
-7 -7 4 -15 0 -18 -9 -4 -11 -2 -15 8 -11 10 4 13 1 10 -7 -3 -8 -14 -12 -25
-9 -23 6 -51 42 -42 56 3 5 -2 5 -13 -1 -13 -7 -25 -7 -37 0 -13 6 -17 6 -13
0 3 -5 -1 -13 -10 -16 -10 -4 -13 -2 -8 7 6 9 5 9 -7 0 -11 -9 -18 -8 -32 2
-12 8 -14 15 -7 20 5 3 8 11 5 16 -4 5 0 12 9 15 8 3 17 12 20 20 4 10 2 12
-6 8 -7 -5 -9 0 -6 14 3 12 3 20 -1 19 -3 -1 -7 3 -9 8 -2 6 -13 15 -24 21
-14 7 -17 14 -9 18 6 4 9 11 7 15 -3 3 4 7 15 7 10 0 19 -3 19 -7 0 -9 21 -6
39 5 11 7 13 5 8 -7 -4 -11 -2 -14 8 -10 8 3 13 9 10 13 -3 4 2 11 11 14 9 3
14 13 11 21 -4 9 -1 12 9 8 8 -3 14 -2 13 3 -4 24 1 27 25 18z m-144 -254 c0
-5 -2 -10 -4 -10 -3 0 -8 5 -11 10 -3 6 -1 10 4 10 6 0 11 -4 11 -10z m754
-411 c-2 -4 1 -11 7 -15 8 -4 7 -9 -2 -15 -11 -7 -11 -9 -1 -9 7 0 10 -4 7
-10 -3 -5 -2 -10 2 -10 5 0 10 -9 11 -20 1 -11 2 -27 3 -35 1 -8 12 -15 25
-15 29 0 55 -10 49 -20 -2 -4 6 -5 19 -3 34 7 41 -13 15 -39 -12 -13 -18 -17
-14 -9 6 10 4 12 -4 7 -7 -5 -10 -15 -7 -23 3 -8 1 -11 -4 -8 -14 9 -51 -4
-45 -16 6 -8 -7 -13 -30 -10 -5 0 -2 -5 7 -11 15 -11 15 -13 0 -26 -9 -7 -11
-11 -4 -7 6 3 12 4 12 1 0 -2 3 -11 6 -20 3 -9 1 -16 -6 -16 -6 0 -8 5 -4 12
5 7 3 8 -6 3 -10 -6 -9 -11 5 -22 11 -7 13 -13 7 -13 -9 0 -10 -5 -2 -19 9
-17 7 -19 -10 -16 -22 4 -60 24 -47 25 10 0 -18 30 -28 30 -4 0 -12 6 -20 13
-7 8 -24 13 -37 11 -12 -1 -27 -3 -31 -3 -5 -1 -5 -6 -2 -11 4 -6 3 -10 -2 -9
-26 4 -63 -2 -58 -11 3 -5 0 -7 -8 -4 -8 3 -14 11 -12 17 10 39 18 56 25 52 5
-3 12 0 16 6 4 8 3 9 -4 5 -17 -10 -15 10 3 28 18 18 20 30 3 20 -8 -5 -7 0 2
11 9 11 10 16 3 11 -8 -4 -13 -1 -13 8 0 9 -4 16 -10 16 -5 0 -10 7 -10 15 0
7 -7 18 -16 23 -9 5 -17 13 -17 18 -1 5 -5 8 -8 7 -4 -1 -5 7 -2 18 4 13 8 16
13 10 3 -6 16 -13 29 -16 14 -2 19 0 15 7 -4 7 -2 8 5 4 17 -11 91 -15 85 -5
-3 5 2 12 10 15 9 3 13 10 10 15 -3 5 -1 9 5 9 6 0 17 13 25 28 8 16 22 29 30
29 8 0 13 -4 10 -8z m-64 -562 c0 7 7 10 16 6 11 -4 12 -8 4 -13 -7 -5 -9 -13
-5 -21 6 -9 4 -11 -8 -6 -9 3 -16 3 -16 -1 4 -21 -2 -32 -13 -26 -7 4 -10 4
-6 0 11 -13 -13 -66 -29 -66 -13 0 -13 -3 -3 -15 9 -10 9 -15 1 -15 -6 0 -10
-6 -8 -12 1 -7 -3 -12 -9 -11 -6 1 -11 -4 -11 -12 0 -8 5 -11 11 -8 6 3 5 0
-1 -8 -7 -7 -13 -25 -13 -40 0 -15 -5 -31 -11 -34 -7 -5 -5 -13 6 -25 12 -14
13 -20 4 -26 -8 -5 -10 -3 -4 7 5 8 4 11 0 7 -11 -10 -16 -60 -6 -54 4 3 8 -1
8 -9 0 -8 -3 -12 -7 -10 -4 2 -7 -2 -7 -10 0 -8 4 -12 9 -9 4 3 8 0 8 -5 0 -6
-5 -11 -11 -11 -5 0 -7 -5 -4 -10 4 -6 11 -8 16 -5 5 4 5 -5 -1 -20 -7 -17 -7
-24 0 -20 9 6 14 -8 11 -29 -1 -4 4 -15 11 -24 10 -12 10 -14 1 -8 -18 10 -16
2 7 -24 11 -12 17 -27 14 -31 -3 -5 0 -9 5 -9 6 0 10 -3 10 -7 -3 -21 2 -33
15 -33 10 0 13 -8 11 -21 -3 -12 -2 -19 2 -16 6 6 33 -17 33 -28 0 -4 7 -13
15 -21 8 -9 15 -12 15 -7 0 4 7 -3 16 -15 8 -12 21 -19 27 -16 7 4 9 4 5 0 -3
-4 3 -19 14 -32 16 -18 24 -21 35 -13 10 9 13 7 13 -6 0 -10 3 -16 6 -12 4 3
13 -1 21 -9 8 -8 19 -12 24 -9 5 4 9 1 9 -4 0 -6 15 -11 33 -11 25 0 29 -3 17
-11 -12 -9 -11 -10 8 -6 12 3 22 1 22 -4 0 -5 5 -9 11 -9 5 0 7 4 4 10 -3 6 1
7 9 4 9 -3 14 -9 12 -13 -3 -4 4 -7 14 -7 10 0 17 4 14 8 -2 4 4 6 15 5 15 -1
17 -4 9 -14 -8 -11 -7 -12 8 -6 10 3 22 11 25 16 4 6 14 5 25 -3 18 -11 18
-11 -1 -5 -16 5 -18 4 -7 -6 6 -7 12 -17 12 -23 0 -5 -3 -6 -6 -3 -4 4 -15 -3
-25 -15 -11 -11 -19 -18 -19 -14 0 4 -6 1 -14 -6 -8 -7 -12 -16 -10 -20 3 -4
-5 -5 -16 -3 -12 2 -20 -1 -20 -10 0 -7 -14 -16 -30 -20 -17 -4 -28 -11 -24
-16 3 -5 2 -9 -3 -8 -21 4 -44 -2 -39 -10 3 -5 -8 -8 -24 -7 -17 1 -30 -2 -30
-8 0 -5 -3 -6 -7 -3 -3 4 -13 2 -20 -5 -11 -9 -17 -9 -24 3 -6 10 -9 11 -9 1
0 -7 -4 -10 -10 -7 -5 3 -10 1 -10 -6 0 -7 -8 -5 -20 6 -17 15 -20 16 -15 3 5
-11 1 -16 -12 -15 -10 1 -21 7 -25 12 -5 6 -8 4 -8 -5 0 -13 -1 -13 -11 0 -9
12 -12 13 -16 1 -4 -11 -7 -11 -13 0 -5 7 -16 14 -24 15 -9 1 -14 -2 -10 -7 3
-5 0 -9 -5 -9 -6 0 -11 4 -11 9 0 5 -6 9 -12 8 -51 -2 -70 4 -59 16 8 11 5 13
-19 9 -18 -3 -30 0 -30 7 0 6 -9 11 -20 11 -11 0 -20 5 -20 10 0 6 -7 10 -15
10 -9 0 -18 7 -21 15 -4 8 -9 13 -13 10 -4 -2 -14 5 -21 16 -8 10 -24 19 -35
20 -11 0 -15 3 -8 5 7 3 4 13 -10 28 -12 12 -25 21 -29 19 -5 -2 -8 1 -8 6 0
6 0 13 0 16 0 3 -9 14 -20 25 -12 12 -18 25 -15 30 4 6 -1 10 -9 10 -9 0 -16
9 -16 20 0 11 -6 20 -12 21 -10 0 -10 2 -1 6 9 3 6 11 -8 26 -13 14 -16 23 -8
26 8 2 8 5 0 10 -6 4 -12 24 -13 44 -2 20 -6 37 -10 37 -5 0 -8 5 -8 11 0 5 5
7 10 4 6 -3 10 -1 10 4 0 6 -5 11 -11 11 -8 0 -7 6 2 17 8 9 9 14 3 10 -7 -4
-15 0 -18 9 -3 8 -2 13 3 10 14 -9 22 25 10 40 -9 11 -8 19 7 35 17 19 17 20
-2 13 -16 -7 -17 -5 -7 8 7 8 14 27 15 43 2 15 8 30 15 32 7 3 13 9 13 15 0 5
-6 6 -12 2 -7 -4 -4 2 6 14 11 12 17 25 13 28 -3 3 5 17 19 31 26 26 32 41 11
27 -7 -5 -5 -2 5 7 9 9 14 19 11 23 -4 3 1 6 11 6 9 0 14 5 11 10 -3 6 1 13 9
16 9 3 14 10 11 14 -8 12 23 33 36 24 8 -4 9 -3 5 4 -4 7 -2 12 4 12 6 0 8 5
4 12 -5 8 -2 9 9 5 12 -4 17 -1 17 9 0 10 6 14 15 10 8 -3 14 0 12 7 -1 7 4
11 11 10 6 -2 12 2 12 7 0 6 7 10 15 10 9 0 18 7 21 15 5 11 11 12 25 4 14 -7
19 -7 17 2 -2 6 3 14 11 17 9 3 11 0 6 -8 -5 -9 -4 -11 3 -6 7 4 12 14 12 22
0 8 5 14 11 14 6 0 8 -7 5 -17 -6 -16 -6 -16 12 0 10 9 28 17 40 17 12 0 22 6
22 13 0 8 4 7 10 -3 6 -9 10 -11 10 -3z m-574 -1089 c5 -7 2 -9 -7 -4 -8 4 -5
0 5 -8 11 -9 15 -16 9 -16 -6 0 -8 -11 -5 -25 2 -14 9 -25 16 -25 6 0 4 -5 -4
-10 -12 -8 -12 -10 -1 -10 11 0 11 -3 0 -17 -8 -9 -9 -14 -3 -10 7 4 18 -1 25
-10 8 -10 9 -14 2 -10 -8 5 -11 1 -10 -12 0 -11 5 -17 9 -15 8 5 12 -11 9 -30
-1 -5 5 -6 14 -3 8 4 15 2 15 -3 0 -5 7 -7 15 -4 8 4 15 1 15 -6 0 -7 8 -10
20 -7 12 3 17 1 14 -5 -3 -5 2 -8 12 -6 11 2 18 -2 17 -8 -1 -6 4 -11 12 -11
8 0 12 4 10 8 -3 4 6 2 20 -4 26 -13 36 -40 10 -31 -8 4 -17 -1 -21 -10 -3 -9
-12 -16 -20 -16 -8 0 -14 -4 -14 -10 0 -5 -7 -10 -15 -10 -8 0 -15 -5 -15 -11
0 -5 -5 -7 -10 -4 -6 3 -13 -1 -16 -9 -3 -9 -10 -13 -15 -10 -5 3 -9 0 -9 -5
0 -6 -9 -20 -20 -31 -11 -11 -15 -20 -10 -20 6 0 10 -9 10 -21 0 -11 -4 -18
-8 -15 -5 3 -9 -1 -9 -9 0 -8 4 -12 9 -9 10 6 6 -26 -6 -45 -6 -9 -5 -12 1 -8
13 8 12 -48 -1 -60 -5 -5 -6 -2 -1 6 6 11 4 13 -8 8 -10 -3 -17 -2 -17 4 0 6
-4 7 -10 4 -5 -3 -10 1 -10 10 0 9 -4 13 -10 10 -5 -3 -10 -1 -10 5 0 6 -6 8
-12 4 -7 -4 -10 -3 -5 1 9 10 -21 45 -39 45 -7 0 -18 8 -23 18 -8 13 -10 14
-11 2 0 -13 -2 -13 -9 -1 -8 13 -12 13 -27 0 -10 -8 -15 -9 -11 -2 4 6 -10 3
-30 -7 -20 -10 -44 -15 -52 -12 -9 3 -12 1 -8 -5 5 -7 -1 -9 -15 -5 -14 3 -19
2 -14 -6 7 -12 -25 -17 -37 -6 -7 8 13 54 24 54 5 0 6 7 2 15 -3 9 3 23 13 31
11 9 14 13 7 10 -14 -7 -11 23 4 32 5 4 15 22 21 41 10 30 10 32 -4 20 -8 -7
-14 -8 -13 -3 4 23 -2 35 -13 28 -8 -5 -7 0 2 11 8 10 10 16 4 12 -10 -6 -36
21 -38 39 0 5 -13 21 -28 36 -25 24 -27 38 -6 38 5 0 6 -6 2 -12 -4 -7 1 -5
11 4 17 16 19 16 32 0 8 -9 11 -11 7 -3 -5 11 -3 13 9 8 10 -4 17 -1 18 6 0 9
2 8 6 -1 4 -10 8 -10 21 0 13 11 15 10 9 -4 -5 -15 -2 -16 18 -8 16 6 25 5 27
-2 3 -7 14 -1 28 13 12 13 19 18 15 10 -5 -9 -4 -12 3 -7 7 4 12 14 12 22 0 8
4 14 9 14 5 0 13 9 16 20 4 11 11 18 16 15 5 -4 9 1 9 9 0 9 5 16 10 16 6 0 9
6 8 13 -2 6 4 11 12 9 8 -2 12 0 8 4 -4 4 -3 13 3 21 14 16 16 16 25 1z m1220
-20 c4 -7 3 -8 -4 -4 -19 11 -14 -5 6 -20 11 -9 12 -13 4 -14 -10 0 -9 -7 3
-30 11 -22 12 -30 3 -30 -6 0 -3 -7 8 -16 10 -8 13 -13 7 -9 -9 4 -11 1 -7
-10 4 -9 9 -13 12 -11 3 3 11 -2 19 -12 9 -10 12 -11 7 -2 -6 12 -4 12 12 -1
32 -26 48 -34 39 -18 -7 11 -6 12 7 2 8 -7 18 -10 21 -6 4 3 7 1 7 -6 0 -7 6
-11 14 -8 9 4 13 -2 12 -17 -1 -16 -6 -22 -15 -18 -9 3 -12 1 -7 -6 5 -8 2
-10 -8 -6 -9 3 -16 1 -16 -5 0 -6 -7 -8 -17 -4 -10 4 -14 2 -10 -4 8 -13 -20
-26 -36 -16 -7 4 -7 0 1 -9 10 -13 10 -18 1 -24 -8 -4 -9 -3 -5 4 4 7 2 12 -4
12 -8 0 -11 -14 -8 -40 2 -22 0 -40 -5 -40 -4 0 -3 -10 4 -21 8 -15 8 -19 0
-15 -6 4 -11 2 -11 -3 0 -6 6 -11 13 -12 9 0 9 -2 0 -5 -7 -3 -10 -11 -7 -19
11 -27 -23 -9 -69 38 -46 47 -71 55 -104 34 -8 -5 -13 -3 -13 5 0 8 -3 9 -8 3
-4 -5 -18 -16 -31 -23 -19 -11 -22 -11 -15 0 4 7 -1 6 -12 -4 -16 -14 -21 -14
-32 -2 -12 13 -8 18 11 15 5 -1 6 3 2 9 -4 6 -1 17 5 25 7 8 9 15 6 15 -4 0 0
7 8 16 9 8 16 21 17 27 0 7 2 20 4 30 2 9 -1 17 -6 17 -6 0 -7 5 -4 10 3 6 1
10 -4 10 -6 0 -11 6 -11 13 0 7 -9 19 -19 27 -11 7 -18 17 -15 22 3 4 -1 11
-10 14 -8 3 -17 13 -21 22 -3 9 -3 13 1 10 4 -4 15 -3 25 3 11 5 19 6 19 2 0
-4 16 -9 36 -11 25 -1 33 1 28 10 -4 6 3 4 16 -5 22 -15 24 -15 37 1 8 9 11
11 7 3 -5 -10 -3 -12 5 -7 7 5 10 14 7 22 -3 9 0 11 11 7 11 -4 14 -2 9 5 -3
6 3 16 14 22 11 6 18 15 15 21 -4 5 -2 9 4 9 6 0 7 7 4 17 -4 10 -2 14 5 9 6
-3 13 -2 17 4 8 13 12 13 21 -2z m-1746 -582 c0 5 5 1 11 -10 9 -15 13 -16 20
-5 7 11 9 11 9 1 0 -7 4 -11 9 -8 5 3 11 -1 15 -9 3 -8 11 -15 18 -15 9 0 8 3
-2 10 -9 6 -10 10 -3 10 6 0 15 -5 18 -10 4 -6 11 -8 16 -5 5 4 9 1 9 -5 0 -8
6 -8 20 0 16 8 22 8 26 -3 3 -9 13 -13 25 -10 11 3 19 0 19 -6 0 -7 6 -11 13
-10 35 4 58 -2 51 -13 -5 -9 -2 -9 9 1 9 7 17 10 17 5 0 -5 17 -10 37 -12 20
-1 41 -8 45 -15 6 -9 8 -9 8 1 0 6 5 12 10 12 6 0 10 -8 10 -17 0 -15 2 -14
14 3 14 18 15 18 22 1 5 -15 9 -16 15 -5 6 8 9 9 9 1 0 -7 11 -9 30 -7 17 3
30 1 30 -4 0 -6 7 -13 16 -16 8 -3 13 -2 10 3 -3 5 1 12 10 15 10 4 13 2 8 -6
-5 -7 0 -9 14 -6 12 4 20 3 17 -2 -3 -4 2 -11 11 -14 8 -3 12 -2 9 4 -3 6 1
10 9 10 9 0 16 -6 16 -12 0 -9 4 -8 10 2 5 8 10 10 10 5 0 -15 40 -16 40 -2 0
8 4 7 9 -2 11 -17 51 -23 51 -8 0 6 8 3 18 -6 9 -9 23 -13 29 -9 10 6 68 8 68
2 0 -7 42 -7 51 1 8 7 13 6 16 -2 3 -9 9 -9 25 0 12 6 24 7 27 3 6 -11 69 -8
87 3 8 5 10 4 5 -3 -10 -16 7 -15 23 1 11 10 12 9 6 -3 -8 -13 -7 -13 8 -1 14
11 17 11 17 0 0 -11 2 -11 10 1 9 13 10 13 10 0 0 -13 1 -13 10 0 5 8 10 10
10 4 0 -12 32 -11 64 2 14 5 17 4 11 -5 -4 -7 5 -5 21 5 15 11 25 13 21 7 -9
-14 5 -18 17 -6 12 12 40 12 48 0 6 -9 8 -9 8 0 0 6 9 9 22 5 16 -4 19 -2 13
8 -6 10 -4 11 6 4 21 -13 39 -14 39 -2 0 6 7 4 17 -3 14 -12 16 -12 8 0 -6 11
-3 13 14 8 12 -3 35 2 52 10 24 12 33 13 39 3 5 -9 9 -9 14 -1 4 6 12 9 17 6
5 -4 12 1 15 9 5 14 8 14 21 1 8 -8 20 -15 26 -15 7 0 6 4 -3 10 -8 5 -10 10
-5 11 6 0 20 2 33 5 16 3 21 0 17 -8 -4 -7 1 -4 9 6 9 11 16 16 16 10 0 -5 5
-2 10 6 9 13 10 13 10 0 1 -12 3 -11 11 3 8 14 14 16 25 6 8 -7 14 -7 14 -1 0
5 14 9 30 8 20 -1 29 2 26 10 -3 8 3 10 16 6 14 -3 19 -1 14 6 -5 9 0 9 19 2
17 -7 24 -7 20 0 -6 9 8 14 29 11 4 -1 14 3 20 9 7 5 16 7 19 3 4 -3 7 -1 7 5
0 7 6 11 13 10 6 -2 11 2 10 9 -2 7 4 10 13 6 13 -5 13 -7 2 -14 -10 -7 -9 -9
4 -9 9 0 20 -5 24 -12 5 -7 2 -8 -7 -3 -11 6 -12 5 -1 -6 6 -7 12 -23 12 -36
0 -13 6 -23 14 -23 8 0 12 -9 11 -25 -2 -14 1 -25 7 -25 6 0 8 -7 5 -15 -4 -8
-1 -17 5 -21 7 -5 8 -2 3 6 -5 9 -4 11 4 6 9 -6 9 -11 0 -22 -8 -10 -8 -14 0
-14 6 0 11 -9 11 -21 0 -13 4 -18 13 -13 6 4 9 4 5 -1 -4 -4 -2 -15 5 -23 9
-13 9 -14 0 -8 -9 5 -11 2 -7 -8 3 -9 11 -16 17 -16 6 0 7 -3 4 -7 -4 -3 -2
-12 4 -19 7 -8 6 -14 -2 -20 -8 -5 -10 -3 -4 7 4 8 -6 0 -23 -18 -16 -17 -33
-29 -36 -26 -3 4 -6 1 -6 -6 0 -8 -7 -11 -15 -7 -9 3 -21 -4 -31 -19 -9 -14
-22 -21 -30 -18 -8 3 -14 0 -14 -6 0 -6 -7 -8 -17 -4 -12 5 -14 3 -8 -7 6 -10
3 -12 -12 -8 -13 3 -25 -1 -33 -12 -10 -15 -18 -16 -38 -9 -22 8 -23 8 -12 -6
11 -13 10 -14 -4 -9 -9 3 -16 1 -16 -5 0 -6 -5 -11 -11 -11 -5 0 -7 6 -3 13 5
9 4 9 -6 0 -7 -6 -19 -9 -26 -6 -8 3 -14 0 -14 -6 0 -6 -11 -11 -24 -11 -14 0
-28 -5 -31 -11 -4 -6 -13 -8 -21 -5 -8 3 -19 -1 -26 -8 -11 -11 -15 -11 -24 2
-9 12 -13 12 -19 2 -6 -9 -4 -11 5 -5 8 5 11 4 6 -3 -3 -6 -15 -9 -26 -7 -11
2 -20 0 -20 -5 0 -4 -9 -6 -20 -3 -11 3 -28 -1 -37 -8 -15 -12 -16 -12 -8 1 8
13 6 13 -8 2 -9 -8 -21 -11 -27 -7 -5 3 -10 1 -10 -5 0 -7 -15 -10 -40 -7 -25
2 -40 0 -40 -7 0 -7 -3 -7 -8 -1 -4 6 -13 11 -21 13 -12 3 -12 1 0 -14 13 -16
12 -16 -7 -6 -12 6 -24 8 -28 4 -4 -3 -11 0 -16 8 -8 12 -10 10 -10 -9 0 -24
0 -24 -16 -5 -8 10 -13 14 -10 8 8 -16 -19 -25 -33 -11 -8 8 -11 7 -11 -4 0
-11 -2 -12 -9 0 -6 10 -13 11 -29 2 -26 -14 -35 -14 -26 0 4 8 1 8 -12 2 -11
-6 -63 -9 -116 -9 -64 1 -94 -2 -90 -9 3 -5 -5 -2 -19 7 -23 15 -28 15 -41 1
-12 -12 -17 -12 -23 -2 -6 8 -4 10 5 4 9 -5 11 -4 6 4 -4 6 -13 8 -19 4 -19
-11 -58 -13 -51 -1 4 6 -3 5 -16 -2 -13 -7 -25 -8 -29 -3 -7 10 -43 9 -59 -1
-6 -3 -14 -1 -18 5 -5 8 -3 9 6 4 9 -6 11 -4 5 5 -6 10 -11 9 -22 -5 -7 -11
-13 -13 -13 -6 0 7 -4 10 -9 6 -6 -3 -15 3 -21 12 -11 17 -11 17 -6 -1 6 -17
4 -17 -16 -4 -20 12 -42 16 -50 8 -9 -6 -50 -5 -54 2 -3 4 -23 8 -45 8 -21 0
-39 5 -39 10 0 6 -5 10 -11 10 -5 0 -7 -6 -3 -12 6 -10 4 -10 -7 -2 -13 11
-28 14 -72 15 -13 0 -17 5 -13 17 5 15 4 15 -8 -1 -13 -17 -14 -17 -20 0 -6
15 -8 15 -16 3 -6 -10 -10 -11 -10 -3 0 7 -7 10 -15 6 -9 -3 -23 3 -31 13 -9
11 -13 14 -10 9 2 -6 -4 -11 -14 -11 -15 0 -17 3 -7 15 10 12 9 13 -10 2 -13
-6 -23 -7 -23 -2 0 5 -11 8 -24 7 -16 -2 -23 1 -20 9 4 8 -4 11 -20 10 -14 -2
-26 1 -26 5 0 5 -9 7 -20 5 -11 -2 -18 0 -15 6 4 5 -5 9 -19 9 -14 0 -26 5
-26 11 0 5 -4 7 -10 4 -5 -3 -10 2 -11 12 0 11 -3 13 -6 5 -4 -10 -8 -9 -18 4
-7 10 -20 19 -30 20 -27 4 -76 26 -71 32 3 3 -4 14 -17 24 -22 19 -34 64 -14
51 7 -4 8 0 3 12 -6 16 -4 16 11 4 12 -10 15 -11 9 -1 -14 23 -14 61 0 66 8 3
11 12 8 21 -4 9 -1 15 7 15 11 0 11 3 -1 10 -9 6 -10 10 -3 10 6 0 10 9 8 20
-2 11 0 18 4 15 5 -3 12 2 15 11 4 10 2 13 -6 8 -7 -5 -8 -3 -2 7 9 14 10 19
13 40 0 5 7 7 14 3 9 -5 9 -4 0 6 -17 18 16 63 35 48 6 -6 12 -7 12 -2z
m-1260 -360 c0 -2 -8 -10 -17 -17 -16 -13 -17 -12 -4 4 13 16 21 21 21 13z"/>
<path d="M2105 1649 c-4 -6 -5 -12 -2 -15 2 -3 7 2 10 11 7 17 1 20 -8 4z"/>
<path d="M1820 376 c0 -2 8 -10 18 -17 15 -13 16 -12 3 4 -13 16 -21 21 -21
13z"/>
<path d="M1896 361 c-3 -4 6 -7 19 -7 14 0 22 2 19 5 -8 8 -34 10 -38 2z"/>
<path d="M1980 360 c0 -5 5 -10 11 -10 5 0 7 5 4 10 -3 6 -8 10 -11 10 -2 0
-4 -4 -4 -10z"/>
<path d="M3100 360 c0 -5 9 -8 20 -7 21 1 18 10 -5 13 -8 1 -15 -2 -15 -6z"/>
<path d="M3150 360 c0 -5 5 -10 11 -10 5 0 7 5 4 10 -3 6 -8 10 -11 10 -2 0
-4 -4 -4 -10z"/>
</g>
</svg>
